<svg width="25" xmlns="http://www.w3.org/2000/svg" height="25" id="screenshot-ed799811-c30e-8029-8006-544d32c3500d" viewBox="0 0 25 25" xmlns:xlink="http://www.w3.org/1999/xlink" fill="none" version="1.1"><g id="shape-ed799811-c30e-8029-8006-544d32c3500d"><g class="frame-container-wrapper"><g class="frame-container-blur"><g class="frame-container-shadows"><g fill="none"><g class="fills" id="fills-ed799811-c30e-8029-8006-544d32c3500d"><rect rx="0" ry="0" x="0" y="0" width="25" height="25" transform="matrix(1.000000, 0.000000, 0.000000, 1.000000, 0.000000, 0.000000)" class="frame-background"/></g><g class="frame-children"><g id="shape-ed799811-c30e-8029-8006-544d32c3500e" width="24" class="feather feather-github" height="24" rx="0" ry="0" style="fill: rgb(0, 0, 0);"><g id="shape-ed799811-c30e-8029-8006-544d32c3500f" style="display: none;"><g class="fills" id="fills-ed799811-c30e-8029-8006-544d32c3500f"><rect width="25" height="25" x="0" stroke-linejoin="round" transform="matrix(1.000000, 0.000000, 0.000000, 1.000000, 0.000000, 0.000000)" style="fill: none;" ry="0" fill="none" rx="0" y="0"/></g><g fill="none" stroke-linejoin="round" id="strokes-4ee6232e-bdbf-803e-8006-581fb3daf714-ed799811-c30e-8029-8006-544d32c3500f" class="strokes"><g class="stroke-shape"><rect rx="0" ry="0" x="0" y="0" transform="matrix(1.000000, 0.000000, 0.000000, 1.000000, 0.000000, 0.000000)" width="25" height="25" style="fill: none; stroke-width: 2; stroke: rgb(0, 0, 0); stroke-opacity: 1;"/></g></g></g><g id="shape-ed799811-c30e-8029-8006-544d32c35010"><g class="fills" id="fills-ed799811-c30e-8029-8006-544d32c35010"><path d="M9.375,19.792C4.167,21.354,4.167,17.188,2.083,16.667M16.667,22.917L16.667,18.885C16.746,17.881,16.389,16.890,15.688,16.167C18.958,15.802,22.396,14.563,22.396,8.875C22.396,7.421,21.836,6.022,20.833,4.969C21.308,3.696,21.275,2.290,20.740,1.042C20.740,1.042,19.510,0.677,16.667,2.583C14.279,1.936,11.762,1.936,9.375,2.583C6.531,0.677,5.302,1.042,5.302,1.042C4.767,2.290,4.733,3.696,5.208,4.969C4.198,6.030,3.638,7.441,3.646,8.906C3.646,14.552,7.083,15.792,10.354,16.198C9.661,16.914,9.305,17.891,9.375,18.885L9.375,22.917" fill="none" stroke-linejoin="round" style="fill: none;"/></g><g fill="none" stroke-linejoin="round" id="strokes-4ee6232e-bdbf-803e-8006-581fb3dbc84e-ed799811-c30e-8029-8006-544d32c35010" class="strokes"><g class="stroke-shape"><path d="M9.375,19.792C4.167,21.354,4.167,17.188,2.083,16.667M16.667,22.917L16.667,18.885C16.746,17.881,16.389,16.890,15.688,16.167C18.958,15.802,22.396,14.563,22.396,8.875C22.396,7.421,21.836,6.022,20.833,4.969C21.308,3.696,21.275,2.290,20.740,1.042C20.740,1.042,19.510,0.677,16.667,2.583C14.279,1.936,11.762,1.936,9.375,2.583C6.531,0.677,5.302,1.042,5.302,1.042C4.767,2.290,4.733,3.696,5.208,4.969C4.198,6.030,3.638,7.441,3.646,8.906C3.646,14.552,7.083,15.792,10.354,16.198C9.661,16.914,9.305,17.891,9.375,18.885L9.375,22.917" style="fill: none; stroke-width: 2; stroke: rgb(0, 0, 0); stroke-opacity: 1;"/></g></g></g></g></g></g></g></g></g></g></svg>