<svg width="24" xmlns="http://www.w3.org/2000/svg" height="24" id="screenshot-ed799811-c30e-8029-8006-544cdc83608f" viewBox="0 0 24 24" xmlns:xlink="http://www.w3.org/1999/xlink" fill="none" version="1.1"><g id="shape-ed799811-c30e-8029-8006-544cdc83608f"><g class="frame-container-wrapper"><g class="frame-container-blur"><g class="frame-container-shadows"><g fill="none"><g class="fills" id="fills-ed799811-c30e-8029-8006-544cdc83608f"><rect rx="0" ry="0" x="0" y="0" width="24" height="24" transform="matrix(1.000000, 0.000000, 0.000000, 1.000000, 0.000000, 0.000000)" class="frame-background"/></g><g class="frame-children"><g id="shape-ed799811-c30e-8029-8006-544cdc836090" width="24" class="feather feather-instagram" height="24" rx="0" ry="0" style="fill: rgb(0, 0, 0);"><g id="shape-ed799811-c30e-8029-8006-544cdc836091" style="display: none;"><g class="fills" id="fills-ed799811-c30e-8029-8006-544cdc836091"><rect width="24" height="24" x="0" stroke-linejoin="round" transform="matrix(1.000000, 0.000000, 0.000000, 1.000000, 0.000000, 0.000000)" style="fill: none;" ry="0" fill="none" rx="0" y="0"/></g><g fill="none" stroke-linejoin="round" id="strokes-36fd2af4-b4fb-80c3-8006-581fc5617e3b-ed799811-c30e-8029-8006-544cdc836091" class="strokes"><g class="stroke-shape"><rect rx="0" ry="0" x="0" y="0" transform="matrix(1.000000, 0.000000, 0.000000, 1.000000, 0.000000, 0.000000)" width="24" height="24" style="fill: none; stroke-width: 2; stroke: rgb(0, 0, 0); stroke-opacity: 1;"/></g></g></g><g id="shape-ed799811-c30e-8029-8006-544cdc836092"><g class="fills" id="fills-ed799811-c30e-8029-8006-544cdc836092"><rect width="20" height="20" x="2" stroke-linejoin="round" transform="matrix(1.000000, 0.000000, 0.000000, 1.000000, 0.000000, 0.000000)" style="fill: none;" ry="5" fill="none" rx="5" y="2"/></g><g fill="none" stroke-linejoin="round" id="strokes-36fd2af4-b4fb-80c3-8006-581fc56217b9-ed799811-c30e-8029-8006-544cdc836092" class="strokes"><g class="stroke-shape"><rect rx="5" ry="5" x="2" y="2" transform="matrix(1.000000, 0.000000, 0.000000, 1.000000, 0.000000, 0.000000)" width="20" height="20" style="fill: none; stroke-width: 2; stroke: rgb(0, 0, 0); stroke-opacity: 1;"/></g></g></g><g id="shape-ed799811-c30e-8029-8006-544cdc836093"><g class="fills" id="fills-ed799811-c30e-8029-8006-544cdc836093"><path d="M16.000,11.370C16.253,13.077,15.383,14.754,13.842,15.530C12.300,16.306,10.435,16.005,9.215,14.785C7.995,13.565,7.694,11.700,8.470,10.158C9.246,8.617,10.923,7.747,12.630,8.000C14.373,8.258,15.742,9.627,16.000,11.370ZZ" fill="none" stroke-linejoin="round" style="fill: none;"/></g><g fill="none" stroke-linejoin="round" id="strokes-36fd2af4-b4fb-80c3-8006-581fc5628ba2-ed799811-c30e-8029-8006-544cdc836093" class="strokes"><g class="stroke-shape"><path d="M16.000,11.370C16.253,13.077,15.383,14.754,13.842,15.530C12.300,16.306,10.435,16.005,9.215,14.785C7.995,13.565,7.694,11.700,8.470,10.158C9.246,8.617,10.923,7.747,12.630,8.000C14.373,8.258,15.742,9.627,16.000,11.370ZZ" style="fill: none; stroke-width: 2; stroke: rgb(0, 0, 0); stroke-opacity: 1;"/></g></g></g><g id="shape-ed799811-c30e-8029-8006-544cdc836094"><g class="fills" id="fills-ed799811-c30e-8029-8006-544cdc836094"><path d="M17.500,6.500L17.500,6.500Z" fill="none" stroke-linejoin="round" style="fill: none;"/></g><g fill="none" stroke-linejoin="round" id="strokes-36fd2af4-b4fb-80c3-8006-581fc5631065-ed799811-c30e-8029-8006-544cdc836094" class="strokes"><g class="stroke-shape"><path d="M17.500,6.500L17.500,6.500Z" style="fill: none; stroke-width: 2; stroke: rgb(0, 0, 0); stroke-opacity: 1;"/></g></g></g></g></g></g></g></g></g></g></svg>