<svg width="24" xmlns="http://www.w3.org/2000/svg" height="24" id="screenshot-ed799811-c30e-8029-8006-544cdc836089" viewBox="0 0 24 24" xmlns:xlink="http://www.w3.org/1999/xlink" fill="none" version="1.1"><g id="shape-ed799811-c30e-8029-8006-544cdc836089"><g class="frame-container-wrapper"><g class="frame-container-blur"><g class="frame-container-shadows"><g fill="none"><g class="fills" id="fills-ed799811-c30e-8029-8006-544cdc836089"><rect rx="0" ry="0" x="0" y="0" width="24" height="24" transform="matrix(1.000000, 0.000000, 0.000000, 1.000000, 0.000000, 0.000000)" class="frame-background"/></g><g class="frame-children"><g id="shape-ed799811-c30e-8029-8006-544cdc83608a" width="24" class="feather feather-linkedin" height="24" rx="0" ry="0" style="fill: rgb(0, 0, 0);"><g id="shape-ed799811-c30e-8029-8006-544cdc83608b" style="display: none;"><g class="fills" id="fills-ed799811-c30e-8029-8006-544cdc83608b"><rect width="24" height="24" x="0" stroke-linejoin="round" transform="matrix(1.000000, 0.000000, 0.000000, 1.000000, 0.000000, 0.000000)" style="fill: none;" ry="0" fill="none" rx="0" y="0"/></g><g fill="none" stroke-linejoin="round" id="strokes-3022bc99-e413-80d0-8006-581fbe6d09bb-ed799811-c30e-8029-8006-544cdc83608b" class="strokes"><g class="stroke-shape"><rect rx="0" ry="0" x="0" y="0" transform="matrix(1.000000, 0.000000, 0.000000, 1.000000, 0.000000, 0.000000)" width="24" height="24" style="fill: none; stroke-width: 2; stroke: rgb(0, 0, 0); stroke-opacity: 1;"/></g></g></g><g id="shape-ed799811-c30e-8029-8006-544cdc83608c"><g class="fills" id="fills-ed799811-c30e-8029-8006-544cdc83608c"><path d="M16.000,8.000C19.314,8.000,22.000,10.686,22.000,14.000L22.000,21.000L18.000,21.000L18.000,14.000C18.000,12.895,17.105,12.000,16.000,12.000C14.895,12.000,14.000,12.895,14.000,14.000L14.000,21.000L10.000,21.000L10.000,14.000C10.000,10.686,12.686,8.000,16.000,8.000ZZ" fill="none" stroke-linejoin="round" style="fill: none;"/></g><g fill="none" stroke-linejoin="round" id="strokes-3022bc99-e413-80d0-8006-581fbe6e0fae-ed799811-c30e-8029-8006-544cdc83608c" class="strokes"><g class="stroke-shape"><path d="M16.000,8.000C19.314,8.000,22.000,10.686,22.000,14.000L22.000,21.000L18.000,21.000L18.000,14.000C18.000,12.895,17.105,12.000,16.000,12.000C14.895,12.000,14.000,12.895,14.000,14.000L14.000,21.000L10.000,21.000L10.000,14.000C10.000,10.686,12.686,8.000,16.000,8.000ZZ" style="fill: none; stroke-width: 2; stroke: rgb(0, 0, 0); stroke-opacity: 1;"/></g></g></g><g id="shape-ed799811-c30e-8029-8006-544cdc83608d"><g class="fills" id="fills-ed799811-c30e-8029-8006-544cdc83608d"><rect width="4" height="12" x="2" stroke-linejoin="round" transform="matrix(1.000000, 0.000000, 0.000000, 1.000000, 0.000000, 0.000000)" style="fill: none;" ry="0" fill="none" rx="0" y="9"/></g><g fill="none" stroke-linejoin="round" id="strokes-3022bc99-e413-80d0-8006-581fbe6e949a-ed799811-c30e-8029-8006-544cdc83608d" class="strokes"><g class="stroke-shape"><rect rx="0" ry="0" x="2" y="9" transform="matrix(1.000000, 0.000000, 0.000000, 1.000000, 0.000000, 0.000000)" width="4" height="12" style="fill: none; stroke-width: 2; stroke: rgb(0, 0, 0); stroke-opacity: 1;"/></g></g></g><g id="shape-ed799811-c30e-8029-8006-544cdc83608e"><g class="fills" id="fills-ed799811-c30e-8029-8006-544cdc83608e"><ellipse cx="4" cy="4" rx="2" ry="2" transform="matrix(1.000000, 0.000000, 0.000000, 1.000000, 0.000000, 0.000000)" fill="none" stroke-linejoin="round" style="fill: none;"/></g><g fill="none" stroke-linejoin="round" id="strokes-3022bc99-e413-80d0-8006-581fbe6edc0c-ed799811-c30e-8029-8006-544cdc83608e" class="strokes"><g class="stroke-shape"><ellipse cx="4" cy="4" rx="2" ry="2" transform="matrix(1.000000, 0.000000, 0.000000, 1.000000, 0.000000, 0.000000)" style="fill: none; stroke-width: 2; stroke: rgb(0, 0, 0); stroke-opacity: 1;"/></g></g></g></g></g></g></g></g></g></g></svg>